# xmcd
#
# Track frame offsets:
#       182
#       21550
#       38302
#       56442
#       83260
#       103597
#       122792
#       144725
#       185320
#
# Disc length: 2737 seconds
#
# Revision: 6
# Processed by: cddbd v1.5.2PL0 Copyright (c) Steve Scherf et al.
# Submitted via: FreeDbEdit v0.1
#
DISCID=6a0aaf09
DTITLE=The Moody Blues - Time Traveller (bonus disc)
DYEAR=1994
DGENRE=Progressive Rock
TTITLE0=This Is the Moment
TTITLE1=The Story in Your Eyes (live)
TTITLE2=Voices in the Sky (live)
TTITLE3=New Horizons (live)
TTITLE4=Emily's Song (live)
TTITLE5=Bless the Wings (That Bring You Back) (live)
TTITLE6=Say It With Love (live)
TTITLE7=Legend of a Mind (live)
TTITLE8=Gemini Dream (live)
EXTD=
EXTT0=
EXTT1=
EXTT2=
EXTT3=
EXTT4=
EXTT5=
EXTT6=
EXTT7=
EXTT8=
PLAYORDER=
